<mxfile host="app.diagrams.net" modified="2023-05-02T07:49:47.455Z" agent="Mozilla/5.0 (Windows NT 10.0; Win64; x64) AppleWebKit/537.36 (KHTML, like Gecko) Chrome/112.0.0.0 Safari/537.36" etag="RcCCvGkunsq187asH_P0" version="21.2.4" type="device">
  <diagram name="Page-1" id="H6LQBG0-Ky6Lif10WavN">
    <mxGraphModel dx="880" dy="456" grid="1" gridSize="10" guides="1" tooltips="1" connect="1" arrows="1" fold="1" page="1" pageScale="1" pageWidth="850" pageHeight="1100" math="0" shadow="0">
      <root>
        <mxCell id="0" />
        <mxCell id="1" parent="0" />
        <mxCell id="VfX029lu_tpthvNIuIbX-1" value="movie" style="swimlane;whiteSpace=wrap;html=1;" vertex="1" parent="1">
          <mxGeometry x="40" y="20" width="200" height="200" as="geometry" />
        </mxCell>
        <mxCell id="VfX029lu_tpthvNIuIbX-2" value="TITLE&lt;br&gt;RELEASE DATE&lt;br&gt;DESCRIPTION&lt;br&gt;PLOT&lt;br&gt;CAST&lt;br&gt;RATING&lt;br&gt;" style="text;html=1;align=center;verticalAlign=middle;resizable=0;points=[];autosize=1;strokeColor=none;fillColor=none;" vertex="1" parent="VfX029lu_tpthvNIuIbX-1">
          <mxGeometry x="45" y="30" width="110" height="100" as="geometry" />
        </mxCell>
        <mxCell id="VfX029lu_tpthvNIuIbX-4" value="" style="endArrow=none;html=1;rounded=0;" edge="1" parent="VfX029lu_tpthvNIuIbX-1">
          <mxGeometry width="50" height="50" relative="1" as="geometry">
            <mxPoint y="140" as="sourcePoint" />
            <mxPoint x="200" y="140" as="targetPoint" />
          </mxGeometry>
        </mxCell>
        <mxCell id="VfX029lu_tpthvNIuIbX-5" value="getDetails()&lt;br&gt;setReminder()" style="text;html=1;align=center;verticalAlign=middle;resizable=0;points=[];autosize=1;strokeColor=none;fillColor=none;" vertex="1" parent="VfX029lu_tpthvNIuIbX-1">
          <mxGeometry x="40" y="143" width="100" height="40" as="geometry" />
        </mxCell>
        <mxCell id="VfX029lu_tpthvNIuIbX-6" value="APP" style="swimlane;whiteSpace=wrap;html=1;" vertex="1" parent="1">
          <mxGeometry x="470" y="20" width="200" height="200" as="geometry" />
        </mxCell>
        <mxCell id="VfX029lu_tpthvNIuIbX-8" value="movieData[ ]&lt;br&gt;Current user" style="text;html=1;align=center;verticalAlign=middle;resizable=0;points=[];autosize=1;strokeColor=none;fillColor=none;" vertex="1" parent="VfX029lu_tpthvNIuIbX-6">
          <mxGeometry x="39" y="43" width="90" height="40" as="geometry" />
        </mxCell>
        <mxCell id="VfX029lu_tpthvNIuIbX-11" value="displayLatestMovies()&lt;br&gt;displayTrending Movies()&lt;br&gt;display Movie Details()&lt;br&gt;setReminder( )&lt;br&gt;removeReminder()" style="text;html=1;align=center;verticalAlign=middle;resizable=0;points=[];autosize=1;strokeColor=none;fillColor=none;" vertex="1" parent="VfX029lu_tpthvNIuIbX-6">
          <mxGeometry x="20" y="100" width="160" height="90" as="geometry" />
        </mxCell>
        <mxCell id="VfX029lu_tpthvNIuIbX-9" value="" style="endArrow=none;html=1;rounded=0;exitX=0;exitY=0.5;exitDx=0;exitDy=0;entryX=1;entryY=0.5;entryDx=0;entryDy=0;" edge="1" parent="1" source="VfX029lu_tpthvNIuIbX-6" target="VfX029lu_tpthvNIuIbX-6">
          <mxGeometry width="50" height="50" relative="1" as="geometry">
            <mxPoint x="480" y="158" as="sourcePoint" />
            <mxPoint x="530" y="108" as="targetPoint" />
          </mxGeometry>
        </mxCell>
        <mxCell id="VfX029lu_tpthvNIuIbX-12" value="user" style="swimlane;whiteSpace=wrap;html=1;" vertex="1" parent="1">
          <mxGeometry x="90" y="260" width="200" height="200" as="geometry" />
        </mxCell>
        <mxCell id="VfX029lu_tpthvNIuIbX-14" value="" style="endArrow=none;html=1;rounded=0;" edge="1" parent="VfX029lu_tpthvNIuIbX-12">
          <mxGeometry width="50" height="50" relative="1" as="geometry">
            <mxPoint y="130" as="sourcePoint" />
            <mxPoint x="200" y="130" as="targetPoint" />
          </mxGeometry>
        </mxCell>
        <mxCell id="VfX029lu_tpthvNIuIbX-13" value="Name&lt;br&gt;Email&lt;br&gt;movieReminder[ ]&lt;br&gt;" style="text;html=1;align=center;verticalAlign=middle;resizable=0;points=[];autosize=1;strokeColor=none;fillColor=none;" vertex="1" parent="VfX029lu_tpthvNIuIbX-12">
          <mxGeometry x="45" y="40" width="120" height="60" as="geometry" />
        </mxCell>
        <mxCell id="VfX029lu_tpthvNIuIbX-15" value="addReminder( )&lt;br&gt;removeReminder ( )" style="text;html=1;align=center;verticalAlign=middle;resizable=0;points=[];autosize=1;strokeColor=none;fillColor=none;" vertex="1" parent="VfX029lu_tpthvNIuIbX-12">
          <mxGeometry x="40" y="133" width="130" height="40" as="geometry" />
        </mxCell>
        <mxCell id="VfX029lu_tpthvNIuIbX-16" value="movie data" style="swimlane;whiteSpace=wrap;html=1;" vertex="1" parent="1">
          <mxGeometry x="650" y="260" width="200" height="200" as="geometry" />
        </mxCell>
        <mxCell id="VfX029lu_tpthvNIuIbX-19" value="getLatestMovies( )&lt;br&gt;getTrendingMovies( )" style="text;html=1;align=center;verticalAlign=middle;resizable=0;points=[];autosize=1;strokeColor=none;fillColor=none;" vertex="1" parent="VfX029lu_tpthvNIuIbX-16">
          <mxGeometry x="20" y="103" width="140" height="40" as="geometry" />
        </mxCell>
        <mxCell id="VfX029lu_tpthvNIuIbX-17" value="movie[ ]&lt;br&gt;" style="text;html=1;align=center;verticalAlign=middle;resizable=0;points=[];autosize=1;strokeColor=none;fillColor=none;" vertex="1" parent="VfX029lu_tpthvNIuIbX-16">
          <mxGeometry x="50" y="28" width="70" height="30" as="geometry" />
        </mxCell>
        <mxCell id="VfX029lu_tpthvNIuIbX-18" value="" style="endArrow=none;html=1;rounded=0;entryX=1;entryY=0.5;entryDx=0;entryDy=0;exitX=0;exitY=0.5;exitDx=0;exitDy=0;" edge="1" parent="1" source="VfX029lu_tpthvNIuIbX-16" target="VfX029lu_tpthvNIuIbX-16">
          <mxGeometry width="50" height="50" relative="1" as="geometry">
            <mxPoint x="400" y="440" as="sourcePoint" />
            <mxPoint x="450" y="390" as="targetPoint" />
          </mxGeometry>
        </mxCell>
        <mxCell id="VfX029lu_tpthvNIuIbX-23" value="" style="endArrow=none;html=1;rounded=0;exitX=1.005;exitY=0.07;exitDx=0;exitDy=0;exitPerimeter=0;entryX=-0.025;entryY=0.08;entryDx=0;entryDy=0;entryPerimeter=0;" edge="1" parent="1" source="VfX029lu_tpthvNIuIbX-1" target="VfX029lu_tpthvNIuIbX-6">
          <mxGeometry width="50" height="50" relative="1" as="geometry">
            <mxPoint x="400" y="230" as="sourcePoint" />
            <mxPoint x="450" y="180" as="targetPoint" />
          </mxGeometry>
        </mxCell>
        <mxCell id="VfX029lu_tpthvNIuIbX-24" value="" style="endArrow=none;html=1;rounded=0;" edge="1" parent="1">
          <mxGeometry width="50" height="50" relative="1" as="geometry">
            <mxPoint x="290" y="270" as="sourcePoint" />
            <mxPoint x="360" y="40" as="targetPoint" />
            <Array as="points">
              <mxPoint x="360" y="270" />
            </Array>
          </mxGeometry>
        </mxCell>
        <mxCell id="VfX029lu_tpthvNIuIbX-25" value="" style="endArrow=none;html=1;rounded=0;entryX=-0.025;entryY=0.06;entryDx=0;entryDy=0;entryPerimeter=0;" edge="1" parent="1" target="VfX029lu_tpthvNIuIbX-16">
          <mxGeometry width="50" height="50" relative="1" as="geometry">
            <mxPoint x="360" y="270" as="sourcePoint" />
            <mxPoint x="450" y="180" as="targetPoint" />
          </mxGeometry>
        </mxCell>
        <mxCell id="VfX029lu_tpthvNIuIbX-26" value="" style="endArrow=none;html=1;rounded=0;exitX=1;exitY=0.075;exitDx=0;exitDy=0;exitPerimeter=0;entryX=1.005;entryY=0.045;entryDx=0;entryDy=0;entryPerimeter=0;" edge="1" parent="1" source="VfX029lu_tpthvNIuIbX-6" target="VfX029lu_tpthvNIuIbX-16">
          <mxGeometry width="50" height="50" relative="1" as="geometry">
            <mxPoint x="710" y="60" as="sourcePoint" />
            <mxPoint x="870" y="320" as="targetPoint" />
            <Array as="points">
              <mxPoint x="870" y="35" />
              <mxPoint x="870" y="270" />
            </Array>
          </mxGeometry>
        </mxCell>
      </root>
    </mxGraphModel>
  </diagram>
</mxfile>
